<svg xmlns="http://www.w3.org/2000/svg" xmlns:xlink="http://www.w3.org/1999/xlink">
<!-- arrow_button -->
    <symbol viewBox="0 0 46 11" id="arrow_button">
        <svg width="46" height="11" viewBox="0 0 46 11" fill="none" xmlns="http://www.w3.org/2000/svg">
        <g filter="url(#filter0_d_1937_39)">
        <path d="M4 6.87368H40.4266L36.1827 4.22498" stroke="white" stroke-width="1.18419" stroke-linecap="round"/>
        </g>
        <defs>
        <filter id="filter0_d_1937_39" x="0.701199" y="0.926098" width="44.499" height="9.24641" filterUnits="userSpaceOnUse" color-interpolation-filters="sRGB">
        <feFlood flood-opacity="0" result="BackgroundImageFix"/>
        <feColorMatrix in="SourceAlpha" type="matrix" values="0 0 0 0 0 0 0 0 0 0 0 0 0 0 0 0 0 0 127 0" result="hardAlpha"/>
        <feOffset/>
        <feGaussianBlur stdDeviation="1.35336"/>
        <feColorMatrix type="matrix" values="0 0 0 0 0.831373 0 0 0 0 0.235294 0 0 0 0 0.219608 0 0 0 1 0"/>
        <feBlend mode="normal" in2="BackgroundImageFix" result="effect1_dropShadow_1937_39"/>
        <feBlend mode="normal" in="SourceGraphic" in2="effect1_dropShadow_1937_39" result="shape"/>
        </filter>
        </defs>
        </svg>
    </symbol>
<!-- arrow_button -->
<!-- arrow_next -->
    <symbol viewBox="0 0 38 38" id="arrow_next">
        <path fill-rule="evenodd" clip-rule="evenodd" d="M36.4769 19C36.4769 28.6522 28.6522 36.4769 19 36.4769C9.34776 36.4769 1.52308 28.6522 1.52308 19C1.52308 9.34776 9.34776 1.52308 19 1.52308C28.6522 1.52308 36.4769 9.34776 36.4769 19ZM38 19C38 29.4934 29.4934 38 19 38C8.50659 38 0 29.4934 0 19C0 8.50659 8.50659 0 19 0C29.4934 0 38 8.50659 38 19ZM23.532 19.4128L23.8963 19L23.532 18.5872L15.1497 9.08718C14.9217 8.82879 14.5274 8.80414 14.269 9.03214C14.0106 9.26013 13.986 9.65443 14.214 9.91282L22.2321 19L14.214 28.0872C13.986 28.3456 14.0106 28.7399 14.269 28.9679C14.5274 29.1959 14.9217 29.1712 15.1497 28.9128L23.532 19.4128Z" fill="white"/>
    </symbol>
<!-- arrow_next -->
<!-- arrow_prev -->
    <symbol viewBox="0 0 38 38" id="arrow_prev">
        <path fill-rule="evenodd" clip-rule="evenodd" d="M1.52308 19C1.52308 9.34776 9.34776 1.52307 19 1.52307C28.6522 1.52307 36.4769 9.34776 36.4769 19C36.4769 28.6522 28.6522 36.4769 19 36.4769C9.34776 36.4769 1.52308 28.6522 1.52308 19ZM1.66103e-06 19C2.5784e-06 8.50659 8.50659 -2.5784e-06 19 -1.66103e-06C29.4934 -7.4367e-07 38 8.50659 38 19C38 29.4934 29.4934 38 19 38C8.50659 38 7.4367e-07 29.4934 1.66103e-06 19ZM14.468 18.5872L14.1037 19L14.468 19.4128L22.8503 28.9128C23.0783 29.1712 23.4726 29.1959 23.731 28.9679C23.9894 28.7399 24.014 28.3456 23.786 28.0872L15.7679 19L23.786 9.91282C24.014 9.65443 23.9894 9.26013 23.731 9.03214C23.4726 8.80414 23.0783 8.82879 22.8503 9.08718L14.468 18.5872Z" fill="white"/>
    </symbol>
<!-- arrow_prev -->
<!-- back_btn -->
    <symbol viewBox="0 0 66 66" id="back_btn">
        <g filter="url(#filter0_b_672_1726)">
        <g filter="url(#filter1_b_672_1726)">
        <path d="M58.6286 35.412V48.459C55.6616 43.8201 49.4802 42.1771 47.255 42.1771H27.2789C26.4312 42.1771 25.744 42.8643 25.744 43.712V51.5999L7.20001 33.2375L25.744 15.5999V21.555C25.744 22.4027 26.4279 23.0898 27.2756 23.0898H47.255C51.4583 23.0898 58.6286 28.6469 58.6286 35.412Z" stroke-width="1.53488"/>
        </g>
        </g>
        <defs>
        <filter id="filter0_b_672_1726" x="-82.5" y="-82.5" width="231" height="231" filterUnits="userSpaceOnUse" color-interpolation-filters="sRGB">
        <feFlood flood-opacity="0" result="BackgroundImageFix"/>
        <feGaussianBlur in="BackgroundImage" stdDeviation="41.25"/>
        <feComposite in2="SourceAlpha" operator="in" result="effect1_backgroundBlur_672_1726"/>
        <feBlend mode="normal" in="SourceGraphic" in2="effect1_backgroundBlur_672_1726" result="shape"/>
        </filter>
        <filter id="filter1_b_672_1726" x="-82.5" y="-82.5" width="231" height="231" filterUnits="userSpaceOnUse" color-interpolation-filters="sRGB">
        <feFlood flood-opacity="0" result="BackgroundImageFix"/>
        <feGaussianBlur in="BackgroundImage" stdDeviation="41.25"/>
        <feComposite in2="SourceAlpha" operator="in" result="effect1_backgroundBlur_672_1726"/>
        <feBlend mode="normal" in="SourceGraphic" in2="effect1_backgroundBlur_672_1726" result="shape"/>
        </filter>
        </defs>
    </symbol>
<!-- back_btn -->
<!-- brush -->
    <symbol viewBox="0 0 40 40" id="brush">
        <path d="M14.0898 23.9591L15.3657 25.2215C16.0535 25.8881 17.3768 26.0809 18.0335 25.4183L34.2082 7.54648C34.3922 7.35586 34.5369 7.13087 34.634 6.88433C34.7311 6.6378 34.7786 6.37456 34.774 6.10964C34.7693 5.84472 34.7125 5.58332 34.6069 5.34034C34.5012 5.09737 34.3487 4.87759 34.1581 4.69356C33.9674 4.50952 33.7425 4.36483 33.4959 4.26775C33.2494 4.17067 32.9861 4.1231 32.7212 4.12775C32.4563 4.1324 32.1949 4.18919 31.9519 4.29487C31.709 4.40055 31.4892 4.55305 31.3051 4.74366L13.8656 21.297C13.1796 21.9659 13.4021 23.2925 14.0898 23.9591Z"/>
        <path d="M13.4545 30.1368C13.6863 29.8976 13.887 29.6303 14.0519 29.341C14.3479 28.7319 14.4293 28.0407 14.2829 27.3796C14.1366 26.7184 13.7711 26.1262 13.2458 25.6989C12.7204 25.2716 12.0661 25.0344 11.389 25.0259C10.7119 25.0173 10.0518 25.2378 9.51584 25.6516L9.43874 25.7219L9.17126 25.9787L9.07686 26.0757C8.47111 26.7962 8.03333 27.6426 7.79525 28.5533C7.19693 30.7082 7.03634 33.2223 4.89717 34.778C2.00649 36.84 10.6511 33.109 13.4545 30.1368Z"/>
    </symbol>
<!-- brush -->
<!-- busket -->
    <symbol viewBox="0 0 41 41" id="busket">
        <g clip-path="url(#clip0_1901_31)">
        <g clip-path="url(#clip1_1901_31)">
        <path fill-rule="evenodd" clip-rule="evenodd" d="M39.7273 12.0727C39.8348 12.1984 39.9135 12.346 39.9582 12.5053C40.0028 12.6645 40.0122 12.8316 39.9857 12.9948L38.0781 24.7678C37.9507 25.5675 37.5425 26.2955 36.9268 26.8214C36.3111 27.3473 35.5282 27.6366 34.7185 27.6375L13.8691 27.7284C13.5671 27.7297 13.2779 27.851 13.0653 28.0655C12.8526 28.28 12.7339 28.5702 12.7352 28.8723C12.7365 29.1744 12.8578 29.4635 13.0723 29.6762C13.2868 29.8889 13.577 30.0076 13.8791 30.0063L32.1021 29.9268C32.8274 29.9235 33.5349 30.1512 34.1223 30.5768C34.7096 31.0024 35.1463 31.6038 35.3691 32.2941C35.5919 32.9844 35.5893 33.7276 35.3615 34.4163C35.1338 35.1049 34.6929 35.7033 34.1025 36.1247C33.5121 36.5461 32.803 36.7687 32.0777 36.7602C31.3524 36.7518 30.6486 36.5128 30.0682 36.0777C29.4878 35.6427 29.0609 35.0343 28.8493 34.3405C28.6376 33.6467 28.6523 32.9036 28.8911 32.2187L21.6657 32.2502C21.8504 32.7648 21.9089 33.3163 21.8363 33.8582C21.7638 34.4001 21.5622 34.9167 21.2486 35.3645C20.9349 35.8124 20.5184 36.1784 20.034 36.432C19.5496 36.6855 19.0114 36.819 18.4646 36.8214C17.9179 36.8238 17.3786 36.6949 16.8919 36.4457C16.4053 36.1964 15.9856 35.834 15.6681 35.3889C15.3506 34.9438 15.1445 34.429 15.0672 33.8877C14.9899 33.3464 15.0436 32.7945 15.2239 32.2783L13.889 32.2842C13.0936 32.2867 12.3221 32.0116 11.7078 31.5063C11.0934 31.001 10.6746 30.2971 10.5235 29.5161C10.3725 28.7351 10.4987 27.9259 10.8803 27.228C11.262 26.53 11.8752 25.9871 12.6143 25.6929C11.9797 20.201 11.523 16.2502 11.1944 13.4078C10.3531 6.13076 10.3517 6.11846 10.357 6.11085C10.357 6.11085 10.358 6.10951 10.358 6.10353C10.3566 5.80147 10.2354 5.5123 10.0209 5.29964C9.80633 5.08698 9.51612 4.96824 9.21405 4.96956L2.22858 5.00003C1.92652 5.00135 1.6363 4.88262 1.42178 4.66996C1.20725 4.4573 1.08599 4.16813 1.08468 3.86606C1.08336 3.564 1.20209 3.27378 1.41475 3.05926C1.62741 2.84473 1.91658 2.72348 2.21864 2.72216L9.20412 2.69169C10.0981 2.68877 10.9577 3.0359 11.5991 3.65877C12.2404 4.28165 12.6124 5.13079 12.6355 6.0245L13.3007 11.7855L17.2164 11.7684L17.2015 8.3516C17.2002 8.04953 17.3189 7.75932 17.5316 7.54479C17.7442 7.33027 18.0334 7.20901 18.3355 7.20769L24.0302 7.18285L24.0252 6.04392C24.0239 5.74185 24.1426 5.45164 24.3553 5.23711C24.5679 5.02259 24.8571 4.90133 25.1592 4.90001L34.2706 4.86027C34.5727 4.85896 34.8629 4.97769 35.0774 5.19035C35.292 5.40301 35.4132 5.69218 35.4145 5.99424L35.4394 11.6889L38.8562 11.674C39.0216 11.6732 39.1853 11.7084 39.3357 11.7773C39.4862 11.8461 39.6198 11.9469 39.7273 12.0727ZM33.2559 33.3386C33.2549 33.1134 33.1872 32.8935 33.0612 32.7067C32.9352 32.52 32.7567 32.3748 32.5482 32.2895C32.3397 32.2042 32.1106 32.1826 31.8899 32.2275C31.6692 32.2724 31.4667 32.3818 31.3081 32.5418C31.1495 32.7018 31.0419 32.9052 30.9989 33.1263C30.956 33.3474 30.9795 33.5763 31.0666 33.7841C31.1537 33.9918 31.3005 34.169 31.4883 34.2934C31.6762 34.4177 31.8967 34.4835 32.1219 34.4825C32.424 34.4812 32.7132 34.36 32.9258 34.1454C33.1385 33.9309 33.2572 33.6407 33.2559 33.3386ZM19.5887 33.3983C19.5877 33.173 19.5199 32.9531 19.394 32.7663C19.268 32.5796 19.0895 32.4344 18.881 32.3491C18.6725 32.2638 18.4434 32.2422 18.2227 32.2871C18.0019 32.332 17.7995 32.4414 17.6409 32.6014C17.4823 32.7614 17.3747 32.9648 17.3317 33.1859C17.2887 33.407 17.3123 33.6359 17.3994 33.8437C17.4865 34.0514 17.6333 34.2286 17.8211 34.353C18.0089 34.4773 18.2294 34.5431 18.4547 34.5422C18.7568 34.5408 19.0459 34.4196 19.2586 34.2051C19.4713 33.9905 19.59 33.7003 19.5887 33.3983ZM19.9165 21.6561C19.9196 22.3656 19.3471 22.9432 18.6376 22.9463C17.9281 22.9493 17.3506 22.3768 17.3475 21.6673L17.3251 16.5293C17.322 15.8198 17.8945 15.2423 18.604 15.2392C19.3135 15.2361 19.891 15.8086 19.8941 16.5181L19.9165 21.6561ZM26.3446 22.9126C27.0541 22.9095 27.6266 22.332 27.6235 21.6225L27.6011 16.4845C27.598 15.775 27.0205 15.2025 26.311 15.2056C25.6015 15.2086 25.029 15.7862 25.0321 16.4957L25.0545 21.6337C25.0576 22.3432 25.6351 22.9157 26.3446 22.9126ZM35.3309 21.5889C35.334 22.2984 34.7615 22.8759 34.052 22.879C33.3425 22.8821 32.765 22.3096 32.7619 21.6001L32.7395 16.4621C32.7364 15.7526 33.3089 15.175 34.0184 15.1719C34.7279 15.1688 35.3054 15.7414 35.3085 16.4509L35.3309 21.5889Z" />
        </g>
        </g>
        <defs>
        <clipPath id="clip0_1901_31">
        <rect width="40" height="40" transform="translate(0 0.174438) rotate(-0.249903)"/>
        </clipPath>
        <clipPath id="clip1_1901_31">
        <rect width="40" height="36" transform="translate(1.00549 2.20508) rotate(-0.249903)"/>
        </clipPath>
        </defs>
    </symbol>
<!-- busket -->
<!-- logo -->
    <symbol viewBox="0 0 81 80" id="logo">
        <path d="M46.1227 23.4256C40.0189 27.8491 37.6966 30.7998 36.8469 32.1889C37.0115 32.1889 37.1733 32.2051 37.3378 32.2051C40.4693 32.2051 42.9858 30.398 44.6419 29.168L45.4511 28.5665C46.0688 28.1161 46.3169 25.7102 46.1227 23.4256Z" fill="#EA1C24"/>
        <path d="M2.42743 2.42743L1.25147 40.4167L0 0H75.9165C68.6504 1.84754 59.8766 4.07539 54.2746 5.58848C29.9383 11.8486 19.8941 30.8122 19.3062 32.3657C18.8692 33.5093 19.0364 33.7359 19.5273 34.2214L22.6587 34.4264C24.5513 34.5637 26.4477 34.2165 28.169 33.4176C30.2008 32.4556 32.1787 30.048 34.1027 26.1947C34.2915 28.3146 34.3661 29.4339 34.3266 29.5526L41.7248 22.4888L41.7626 23.7645L56.8153 10.9963L46.8359 22.4537C46.8548 22.5994 46.8737 22.7774 46.8952 22.9932C47.0188 24.0113 47.0576 25.0379 47.0112 26.0625L56.9421 22.0357L47.699 28.2391C60.1517 26.6828 68.8015 26.1974 80.0027 26.0517V47.8662C79.1504 46.2803 76.6205 43.1112 75.957 42.3937C75.5146 41.9406 75.0804 41.4632 74.5949 41.0236C73.6167 40.0991 72.5739 39.2455 71.4743 38.4694C70.9025 38.0918 70.3496 37.6845 69.7455 37.3501L69.3517 37.1208L68.8527 36.8268L67.933 36.371C67.3288 36.0419 66.6869 35.7938 66.0612 35.5187C65.7537 35.3757 65.4273 35.2706 65.1118 35.1546L64.691 35.0035L64.1516 34.812C63.5097 34.6152 62.8704 34.4398 62.2447 34.2726L61.4086 34.0892L60.3621 33.8626L59.553 33.7386L58.5361 33.5821C57.9347 33.5174 57.3467 33.4743 56.7776 33.4203L56.5888 33.4014L56.3514 33.3799H54.3259C54.0562 33.3799 53.8134 33.3799 53.5653 33.396L52.9234 33.4176L52.1439 33.4446C51.6935 33.4446 51.2673 33.5147 50.8681 33.5444L50.3557 33.5902L49.7515 33.6469C49.4063 33.6738 49.0934 33.7359 48.8075 33.7736L47.904 33.9058L47.0247 34.0353H47.6936L48.821 34.0164H49.765L50.2343 34.0326L50.8762 34.0595C51.2673 34.0784 51.6854 34.0892 52.1358 34.1216L52.7319 34.1782L53.5248 34.2564L54.2612 34.3373L54.5929 34.3913L55.0217 34.4587L55.3643 34.5127L55.8066 34.5828L55.9819 34.6125L56.2058 34.6475L56.3811 34.6853L56.6077 34.7338C57.1471 34.8579 57.6865 34.9712 58.2583 35.106L58.9946 35.3191L59.9494 35.5888L60.6938 35.8585L61.6513 36.2038C62.2123 36.4465 62.7787 36.6866 63.3397 36.9401L63.7012 37.1262L64.1651 37.3662C64.4427 37.4987 64.7128 37.6464 64.9742 37.8086C65.5136 38.1349 66.0531 38.4262 66.5547 38.7957L67.3207 39.319L68.049 39.8881C68.5452 40.2495 68.9849 40.6783 69.4434 41.0694C70.3083 41.8704 71.115 42.7321 71.8573 43.6479C72.2268 44.0794 72.5478 44.546 72.8768 44.9965C73.036 45.2203 73.1843 45.4496 73.3327 45.6707C73.481 45.8919 73.6293 46.1104 73.7615 46.3369C74.2776 47.1673 74.7476 48.0254 75.1694 48.9073C77.1163 52.8595 78.7329 56.966 80.0027 61.1847V80L67.5554 79.6143C69.2303 75.28 69.6052 71.6254 69.9127 69.1251C70.5276 65.2979 69.8318 58.6764 67.5554 53.6894C62.9702 44.8265 56.2516 42.828 46.6579 42.507C44.5002 42.4369 32.9294 43.0168 24.7382 54.5497C22.745 57.3575 21.3047 58.9272 23.306 63.6904C13.7509 57.7063 11.6346 48.5774 16.9569 36.3036C17.3111 35.4761 17.4224 34.5649 17.2779 33.6765C17.2073 33.2347 17.2566 32.782 17.4209 32.3657C23.1523 18.0844 33.8923 10.2707 40.6379 5.93372C42.222 4.93808 43.8638 4.03744 45.5548 3.23657L2.42743 2.42743ZM45.4927 28.4818C46.1751 27.9047 46.1994 25.132 46.0915 23.5434C40.1173 27.8777 37.7519 30.7744 36.9212 32.1365C37.083 32.1365 37.2449 32.1365 37.4067 32.1365C40.5003 32.1365 42.9736 30.3159 44.6081 29.1103C44.9317 28.8729 45.2365 28.6545 45.5062 28.4684L45.4927 28.4818Z" fill="white"/>
        <path d="M61.6494 51.2999C66.3479 57.3633 67.5104 64.7357 65.1369 73.4172C64.6244 75.3754 63.9447 78.0699 63.5887 79.4968L40.4356 78.7793L59.3378 78.1778C60.8051 75.2297 66.8146 61.9944 61.6494 51.2999Z" fill="white"/>
    </symbol>
<!-- logo -->
<!-- map -->
    <symbol viewBox="0 0 16 20" id="map">
        <path d="M8.00003 0C12.4112 0 16 3.45173 16 7.6944C16 11.7047 9.35985 18.6088 8.6028 19.3838L8.00003 20L7.39726 19.3838C6.64004 18.6094 9.53674e-07 11.7047 9.53674e-07 7.6944C-0.000343323 3.45173 3.58849 0 8.00003 0ZM8.00003 10.8786C9.82527 10.8786 11.3104 9.45018 11.3104 7.69467C11.3104 5.93911 9.82527 4.51079 8.00003 4.51079C6.17439 4.51079 4.68968 5.93917 4.68968 7.69467C4.68968 9.45024 6.17439 10.8786 8.00003 10.8786Z" fill="white" fill-opacity="0.5"/>
    </symbol>
<!-- map -->
<!-- personal -->
    <symbol viewBox="0 0 23 23" id="personal">
        <path d="M11.4439 13.4577C8.32672 13.4577 5.80114 10.43 5.80114 6.69794C5.80114 2.96626 8.32672 0.200195 11.4439 0.200195C14.5616 0.200195 17.0892 2.96626 17.0892 6.69794C17.0892 10.43 14.5615 13.4577 11.4439 13.4577ZM2.66637 22.596C2.66637 22.596 1.46946 22.675 0.942268 21.9485C0.657406 21.5561 0.855841 20.7608 1.05064 20.3171L1.52773 19.2298C1.52773 19.2298 2.84713 16.279 4.34907 14.569C5.27168 13.5204 6.369 13.7592 7.07873 14.1002C7.51587 14.31 8.01014 14.9214 8.37135 15.2454C8.86909 15.6918 9.7478 16.1992 11.1844 16.2277H12.0658C13.5014 16.1992 14.3802 15.6918 14.8775 15.2454C15.2383 14.9215 15.7189 14.2912 16.1521 14.0744C16.8035 13.7483 17.7949 13.5477 18.6934 14.5691C20.1958 16.2791 21.3857 19.2835 21.3857 19.2835L21.8747 20.3497C22.077 20.7904 22.2842 21.5817 22.0073 21.9794C21.5131 22.6904 20.4035 22.596 20.4035 22.596L2.66637 22.596Z"/>
    </symbol>
<!-- personal -->
<!-- phone -->
    <symbol viewBox="0 0 32 32" id="phone">
        <path d="M30.2222 22.2222C28.0889 22.2222 25.9556 21.8667 23.8222 21.1556C23.2889 20.9778 22.5777 21.1556 22.0444 21.5111L18.1333 25.4222C13.1556 22.9333 9.06667 18.6667 6.4 13.6889L10.3111 9.77778C10.8444 9.24444 11.0222 8.53333 10.6667 8C10.1333 6.04444 9.77778 3.91111 9.77778 1.77778C9.77778 0.711111 9.06667 0 8 0H1.77778C0.711111 0 0 0.711111 0 1.77778C0 18.4889 13.5111 32 30.2222 32C31.2889 32 32 31.2889 32 30.2222V24C32 22.9333 31.2889 22.2222 30.2222 22.2222ZM28.4444 16H32C32 7.11111 24.8889 0 16 0V3.55556C22.9333 3.55556 28.4444 9.06667 28.4444 16ZM21.3333 16H24.8889C24.8889 11.0222 20.9778 7.11111 16 7.11111V10.6667C19.0222 10.6667 21.3333 12.9778 21.3333 16Z" fill="#D43C38"/>
    </symbol>
<!-- phone -->

</svg>